{"title":"Indiana Jones Quadrilogy (PSP + Ipod touch + Zune)","uid":5686162,"size":1882363666,"categoryP":"video","categoryS":"handheld","magnet":"?xt=urn:btih:6f3c91f24db98be00a8c3a6ecdba9e451770aca5&amp;dn=Indiana+Jones+Quadrilogy+%28PSP+%2B+Ipod+touch+%2B+Zune%29&amp;tr=udp%3A%2F%2Ftracker.openbittorrent.com%3A80&amp;tr=udp%3A%2F%2Fopen.demonii.com%3A1337&amp;tr=udp%3A%2F%2Ftracker.coppersurfer.tk%3A6969&amp;tr=udp%3A%2F%2Fexodus.desync.com%3A6969","seeders":0,"leechers":0,"uploader":"on.off.on","files":4,"time":1278935428,"description":"Indiana Jones Quadrilogy\n\n &lt;a href=&quot;\nhttp://www.imdb.com/title/tt0082971/&quot; rel=&quot;nofollow&quot; target=&quot;_NEW&quot;&gt;\nhttp://www.imdb.com/title/tt0082971/&lt;/a&gt;\n &lt;a href=&quot;\nhttp://www.imdb.com/title/tt0087469/&quot; rel=&quot;nofollow&quot; target=&quot;_NEW&quot;&gt;\nhttp://www.imdb.com/title/tt0087469/&lt;/a&gt;\n &lt;a href=&quot;\nhttp://www.imdb.com/title/tt0097576/&quot; rel=&quot;nofollow&quot; target=&quot;_NEW&quot;&gt;\nhttp://www.imdb.com/title/tt0097576/&lt;/a&gt;\n &lt;a href=&quot;\nhttp://www.imdb.com/title/tt0367882/&quot; rel=&quot;nofollow&quot; target=&quot;_NEW&quot;&gt;\nhttp://www.imdb.com/title/tt0367882/&lt;/a&gt;\n\nSource  :\n\n\nIndiana Jones, Raiders of the Lost Ark[1080p HDTV x264-DUAL][GrupoHDS][HAGBARD]\n\nIndiana Jones And The Temple Of Doom 1080p.HDTV.DD5.1.x264-GFM\n\nIndiana.Jones.III.1989.x264.HDTVRip.1080p\n\nIndiana Jones and the kingdom of the crystal skull 1080p AC3\n\n\n\nInfo:\n\nID                               : 1\nFormat                           : AVC\nFormat/Info                      : Advanced Video Codec\nFormat profile                   : &lt;a class=&quot;__cf_email__&quot; href=&quot;/cdn-cgi/l/email-protection&quot; data-cfemail=&quot;03416270666f6a6d66434f312d33&quot;&gt;[email&amp;#160;protected]&lt;/a&gt;&lt;script cf-hash='f9e31' type=&quot;text/javascript&quot;&gt;\n/* &lt;![CDATA[ */!function(){try{var t=&quot;currentScript&quot;in document?document.currentScript:function(){for(var t=document.getElementsByTagName(&quot;script&quot;),e=t.length;e--;)if(t[e].getAttribute(&quot;cf-hash&quot;))return t[e]}();if(t&amp;&amp;t.previousSibling){var e,r,n,i,c=t.previousSibling,a=c.getAttribute(&quot;data-cfemail&quot;);if(a){for(e=&quot;&quot;,r=parseInt(a.substr(0,2),16),n=2;a.length-n;n+=2)i=parseInt(a.substr(n,2),16)^r,e+=String.fromCharCode(i);e=document.createTextNode(e),c.parentNode.replaceChild(e,c)}}}catch(u){}}();/* ]]&gt; */&lt;/script&gt;\nFormat settings, CABAC           : No\nFormat settings, ReFrames        : 3 frames\nCodec ID                         : avc1\nCodec ID/Info                    : Advanced Video Coding\nDuration                         : 1h 48mn\nBit rate mode                    : Variable\nBit rate                         : 400 Kbps\nWidth                            : 480 pixels\nHeight                           : 208 pixels\nDisplay aspect ratio             : 2.35:1\nFrame rate mode                  : Constant\nFrame rate                       : 25.000 fps\nColor space                      : YUV\nChroma subsampling               : 4:2:0\nBit depth                        : 8 bits\nScan type                        : Progressive\nBits/(Pixel*Frame)               : 0.160\nStream size                      : 310 MiB (75%)\nWriting library                  : x264 core 79\n\nID                               : 2\nFormat                           : AAC\nFormat/Info                      : Advanced Audio Codec\nFormat version                   : Version 4\nFormat profile                   : LC\nFormat settings, SBR             : No\nCodec ID                         : 40\nDuration                         : 1h 48mn\nBit rate mode                    : Variable\nBit rate                         : 128 Kbps\nMaximum bit rate                 : 234 Kbps\nChannel(s)                       : 2 channels\nChannel positions                : Front: L R\nSampling rate                    : 48.0 KHz\nStream size                      : 99.2 MiB (24%)\nLanguage                         : English\n\n\nScreens:\n &lt;a href=&quot;\nhttp://img692.imageshack.us/img692/5166/1indianajonesraidersoft.jpg&quot; rel=&quot;nofollow&quot; target=&quot;_NEW&quot;&gt;\nhttp://img692.imageshack.us/img692/5166/1indianajonesraidersoft.jpg&lt;/a&gt;\n &lt;a href=&quot;\nhttp://img62.imageshack.us/img62/1488/2indianajonesandthetemp.jpg&quot; rel=&quot;nofollow&quot; target=&quot;_NEW&quot;&gt;\nhttp://img62.imageshack.us/img62/1488/2indianajonesandthetemp.jpg&lt;/a&gt;\n &lt;a href=&quot;\nhttp://img707.imageshack.us/img707/2944/3indianajonesandthelast.jpg&quot; rel=&quot;nofollow&quot; target=&quot;_NEW&quot;&gt;\nhttp://img707.imageshack.us/img707/2944/3indianajonesandthelast.jpg&lt;/a&gt;\n &lt;a href=&quot;\nhttp://img441.imageshack.us/img441/354/4indianajonesandtheking.jpg&quot; rel=&quot;nofollow&quot; target=&quot;_NEW&quot;&gt;\nhttp://img441.imageshack.us/img441/354/4indianajonesandtheking.jpg&lt;/a&gt;\n\n\n\nPLEASE LET THE TORRENT SEED AND SHARE IT WITH ALL YOU KNOW!\n\nLet me know what I can do to be your trusted source of Handheld videos.\n &lt;a href=&quot;\nhttp://thepiratebay.se/user/on.off.on/&quot; rel=&quot;nofollow&quot; target=&quot;_NEW&quot;&gt;\nhttp://thepiratebay.se/user/on.off.on/&lt;/a&gt; -OOO\n\t\n","torrent":{"xt":"urn:btih:6f3c91f24db98be00a8c3a6ecdba9e451770aca5","amp;dn":"Indiana+Jones+Quadrilogy+%28PSP+%2B+Ipod+touch+%2B+Zune%29","amp;tr":["udp%3A%2F%2Ftracker.openbittorrent.com%3A80","udp%3A%2F%2Fopen.demonii.com%3A1337","udp%3A%2F%2Ftracker.coppersurfer.tk%3A6969","udp%3A%2F%2Fexodus.desync.com%3A6969"],"infoHash":"6f3c91f24db98be00a8c3a6ecdba9e451770aca5","infoHashBuffer":{"type":"Buffer","data":[111,60,145,242,77,185,139,224,10,140,58,110,205,186,158,69,23,112,172,165]},"announce":[],"urlList":[]}}